<?xml version="1.0" standalone="no"?>
<!DOCTYPE svg PUBLIC "-//W3C//DTD SVG 20010904//EN"
 "http://www.w3.org/TR/2001/REC-SVG-20010904/DTD/svg10.dtd">
<svg version="1.0" xmlns="http://www.w3.org/2000/svg"
 width="512.000000pt" height="512.000000pt" viewBox="0 0 512.000000 512.000000"
 preserveAspectRatio="xMidYMid meet">

<g transform="translate(0.000000,512.000000) scale(0.100000,-0.100000)"
fill="#ffffff" stroke="none">
<path d="M1805 5113 c-91 -8 -261 -46 -356 -79 -522 -182 -897 -600 -1027
-1149 -25 -103 -27 -125 -27 -350 1 -223 2 -249 28 -366 58 -273 129 -440 334
-786 l125 -213 -7 -147 c-8 -169 -33 -332 -69 -449 l-26 -80 -87 -59 c-120
-80 -320 -282 -402 -405 -171 -256 -268 -538 -287 -833 -5 -77 -3 -114 6 -137
25 -60 22 -60 539 -60 l471 0 32 29 c27 24 33 36 33 71 0 35 -6 47 -33 71
l-32 29 -408 0 -408 0 8 72 c26 228 120 468 259 668 95 136 354 370 408 370 9
0 278 -62 599 -138 l582 -137 360 -415 359 -415 -470 -5 -471 -5 -24 -28 c-33
-38 -33 -96 0 -134 l24 -28 588 -3 c430 -2 596 1 617 9 38 16 57 46 57 91 0
32 -10 49 -63 110 -216 250 -782 906 -793 919 -11 13 -6 35 37 144 28 71 52
131 54 133 1 2 37 -4 79 -12 58 -13 142 -16 375 -16 326 0 365 5 463 63 65 38
145 128 181 204 31 67 32 71 35 232 l4 164 -70 68 -70 68 65 41 c77 49 93 80
93 178 l0 68 67 33 c93 45 125 73 159 133 24 45 29 64 29 123 -1 86 0 85 -195
385 l-150 231 0 232 0 232 37 20 c20 11 66 49 102 85 108 107 162 219 183 374
26 196 -66 395 -235 506 -99 65 -162 80 -392 90 -231 11 -333 30 -578 109
-279 89 -476 115 -712 94z m410 -218 c44 -9 132 -33 195 -52 341 -106 422
-122 675 -133 116 -5 195 -13 223 -23 154 -54 243 -210 213 -373 -31 -167
-161 -306 -322 -343 -24 -6 -98 -11 -164 -11 -127 0 -191 -12 -264 -49 -86
-45 -136 -105 -312 -383 -94 -147 -173 -268 -174 -268 -2 0 -14 19 -28 43 -33
56 -131 148 -188 175 -232 112 -490 -33 -575 -324 -21 -72 -24 -218 -5 -294
21 -88 75 -190 135 -255 30 -32 58 -70 61 -83 8 -31 -11 -67 -76 -146 l-54
-66 -261 0 -262 0 -108 183 c-187 313 -257 476 -305 712 -30 147 -37 429 -14
567 99 592 576 1054 1175 1138 95 13 341 5 435 -15z m985 -1354 l0 -229 175
-269 c96 -149 175 -279 175 -290 0 -27 -19 -42 -133 -103 -53 -28 -104 -61
-112 -73 -10 -15 -15 -47 -15 -104 l0 -83 -100 -65 c-65 -42 -104 -74 -110
-91 -22 -57 -14 -73 90 -179 l100 -101 0 -83 c0 -46 -5 -101 -12 -122 -16 -55
-73 -118 -132 -145 -50 -23 -58 -24 -341 -24 -324 0 -357 5 -482 65 -39 19
-101 62 -137 95 -59 53 -71 60 -108 60 -86 0 -127 -87 -75 -156 22 -30 87 -90
142 -129 l28 -20 -50 -125 c-41 -106 -52 -124 -69 -122 -26 5 -1039 243 -1040
245 -1 1 11 53 27 115 27 108 42 221 55 415 l6 87 271 0 c194 1 278 4 293 13
21 12 147 159 192 223 36 52 55 144 43 209 -14 73 -32 106 -101 179 -75 81
-103 151 -104 261 -1 202 130 354 274 315 99 -27 189 -169 190 -298 0 -87 69
-135 144 -100 18 7 101 129 267 390 133 208 255 390 272 404 50 42 74 48 222
54 77 4 143 7 148 8 4 1 7 -101 7 -227z"/>
<path d="M4322 2801 c-73 -27 -112 -53 -164 -109 -51 -54 -73 -92 -97 -166
-16 -49 -17 -50 -196 -163 -99 -62 -188 -123 -197 -134 -10 -12 -18 -38 -18
-59 0 -21 8 -47 18 -58 9 -12 98 -72 197 -135 l180 -115 20 -59 c28 -80 56
-123 120 -182 81 -74 145 -96 275 -96 99 0 109 2 173 33 77 38 151 107 186
173 18 35 37 52 79 74 30 16 77 51 103 78 192 195 140 525 -103 652 -42 22
-61 39 -79 74 -35 66 -109 135 -185 172 -60 30 -78 34 -163 36 -76 3 -107 -1
-149 -16z m227 -200 c50 -26 97 -81 112 -131 13 -42 58 -90 85 -90 24 0 87
-36 116 -67 74 -77 76 -199 6 -279 -31 -35 -95 -74 -122 -74 -27 0 -72 -48
-85 -90 -26 -86 -111 -150 -201 -150 -116 0 -195 70 -215 190 -4 25 -11 53
-16 62 -5 9 -72 56 -149 105 -77 48 -140 90 -140 93 0 3 63 45 140 93 77 49
144 96 149 105 5 9 12 37 16 62 20 120 97 189 213 190 33 0 67 -7 91 -19z"/>
<path d="M1394 190 c-55 -22 -72 -108 -31 -155 14 -17 36 -28 63 -32 36 -5 46
-1 75 25 28 25 34 37 34 72 0 72 -72 118 -141 90z"/>
</g>
</svg>
