<?xml version="1.0" standalone="no"?>
<!DOCTYPE svg PUBLIC "-//W3C//DTD SVG 20010904//EN"
 "http://www.w3.org/TR/2001/REC-SVG-20010904/DTD/svg10.dtd">
<svg version="1.0" xmlns="http://www.w3.org/2000/svg"
 width="416.000000pt" height="416.000000pt" viewBox="0 0 416.000000 416.000000"
 preserveAspectRatio="xMidYMid meet">

<g transform="translate(0.000000,416.000000) scale(0.100000,-0.100000)"
fill="#ffffff" stroke="none">
<path d="M1692 3480 c-106 -19 -202 -92 -249 -188 -23 -48 -28 -72 -31 -158
-4 -94 -6 -103 -27 -114 -38 -21 -65 -81 -65 -147 0 -50 5 -67 29 -100 31 -42
90 -73 140 -73 61 0 61 1 61 141 0 102 3 129 14 129 7 0 62 -14 122 -31 110
-32 192 -39 313 -30 59 5 81 20 81 56 0 18 4 22 20 18 36 -9 70 -61 70 -104 0
-51 -13 -75 -50 -94 -39 -20 -40 -20 -40 19 0 43 -24 70 -50 56 -14 -7 -19
-25 -22 -77 -6 -87 -38 -169 -89 -227 -51 -58 -85 -76 -142 -76 -58 0 -100 29
-155 108 -45 64 -60 73 -82 46 -28 -33 66 -166 143 -203 54 -26 137 -27 192
-2 72 32 141 117 175 214 16 46 21 50 69 67 86 29 121 78 121 170 0 55 -10 81
-45 120 -20 22 -24 38 -27 135 -3 89 -9 119 -27 157 -56 115 -168 184 -311
192 -47 3 -109 1 -138 -4z m201 -75 c131 -34 207 -127 207 -255 l0 -45 -21 42
c-25 51 -77 98 -138 127 -38 17 -65 21 -161 21 -106 0 -119 -2 -173 -28 -67
-33 -96 -69 -77 -92 18 -22 32 -19 91 18 50 31 56 32 158 32 91 0 112 -3 148
-22 69 -37 127 -129 97 -153 -7 -7 -14 -25 -14 -40 0 -28 -1 -28 -72 -35 -50
-4 -94 -2 -138 8 -115 26 -245 59 -262 68 -10 5 -27 9 -39 9 -21 0 -21 3 -17
83 5 90 21 131 72 185 75 80 209 111 339 77z m-416 -632 c-10 -9 -57 18 -72
41 -36 55 -17 133 39 160 l31 15 3 -106 c1 -58 1 -107 -1 -110z"/>
<path d="M2623 2985 c-77 -12 -146 -26 -152 -29 -17 -11 -14 -24 34 -198 25
-89 45 -165 45 -169 0 -3 -17 -9 -38 -13 -115 -18 -188 -143 -119 -202 57 -49
153 -37 217 27 45 46 46 77 5 223 -20 71 -34 134 -31 141 2 7 33 15 68 19 91
10 107 16 114 39 12 38 -15 45 -117 30 -51 -7 -93 -12 -94 -11 -1 2 -5 15 -9
30 -7 30 -12 28 127 49 46 7 82 8 87 3 4 -5 21 -56 37 -114 l30 -105 -41 -13
c-69 -21 -108 -67 -108 -126 0 -47 18 -75 57 -92 46 -19 71 -18 120 6 53 26
79 71 72 126 -7 54 -104 373 -118 390 -14 17 -12 17 -186 -11z m231 -370 c20
-20 4 -58 -31 -74 -32 -15 -49 -14 -67 4 -12 12 -13 21 -4 39 18 42 74 58 102
31z m-285 -114 c23 -15 0 -55 -42 -74 -42 -20 -58 -21 -81 -4 -16 12 -16 14 5
41 32 41 85 58 118 37z"/>
<path d="M1500 2361 c-52 -16 -127 -61 -167 -99 -63 -61 -91 -119 -128 -260
-40 -153 -69 -215 -125 -266 -89 -80 -175 -97 -274 -52 -73 33 -106 33 -144 1
-58 -49 -50 -144 17 -208 45 -43 86 -57 169 -57 l65 0 -21 -23 c-55 -58 -68
-167 -30 -245 26 -51 100 -122 173 -163 l50 -28 -139 -3 c-115 -3 -141 -6
-149 -19 -6 -9 -7 -24 -4 -33 6 -14 33 -16 234 -17 274 -1 295 -5 304 -68 10
-75 63 -125 147 -141 47 -9 74 -5 220 26 92 20 172 40 177 44 9 7 75 -8 245
-55 64 -18 188 -20 245 -4 93 26 131 90 96 161 l-18 38 332 0 c349 0 365 2
349 44 -6 16 -24 23 -74 28 -24 3 -24 3 14 45 21 24 53 52 72 64 l34 21 55
-27 c90 -44 176 -34 231 27 41 45 74 103 74 129 0 19 -10 33 -37 52 -82 57
-173 73 -232 43 -35 -19 -85 -75 -111 -126 -11 -22 -30 -45 -42 -51 -12 -6
-43 -32 -70 -57 -27 -25 -51 -42 -55 -39 -3 4 -6 44 -6 89 0 94 22 190 60 259
l25 47 101 4 c184 7 261 66 287 220 14 80 6 171 -17 189 -10 9 -48 13 -111 13
-79 -1 -107 -5 -150 -24 -99 -43 -152 -140 -152 -280 0 -53 -5 -71 -29 -109
-79 -125 -106 -319 -65 -468 l6 -23 -253 0 -254 1 79 41 c90 48 179 124 207
179 31 62 26 127 -16 188 l-35 51 67 1 c83 1 124 15 167 57 63 61 69 170 13
207 -43 27 -72 27 -138 0 -81 -34 -130 -35 -200 -3 -112 51 -160 126 -208 321
-15 63 -41 137 -56 166 -53 97 -174 185 -274 198 -30 4 -47 -1 -80 -23 -57
-37 -141 -54 -215 -42 -57 8 -129 38 -141 58 -7 11 -58 12 -95 1z m107 -91
c112 -56 248 -55 359 1 l61 32 61 -28 c67 -30 144 -103 167 -159 8 -18 25 -78
39 -132 32 -133 57 -194 100 -253 39 -52 106 -103 161 -121 26 -9 35 -18 40
-43 4 -18 13 -42 21 -54 13 -21 13 -23 -3 -23 -44 1 -162 32 -220 59 -130 61
-248 212 -244 312 1 48 -12 65 -44 53 -43 -17 -85 -348 -65 -509 5 -40 4 -40
-44 -64 -62 -29 -210 -40 -301 -21 -111 23 -112 23 -118 6 -21 -54 55 -81 228
-81 146 0 211 15 280 66 60 43 100 59 205 81 218 45 370 -11 370 -138 0 -33
-7 -45 -58 -95 -61 -59 -211 -141 -354 -193 l-68 -25 -46 39 c-37 33 -52 40
-88 40 -29 0 -52 -7 -70 -21 l-28 -22 -49 24 -50 23 23 18 c115 90 239 142
372 155 83 8 106 23 92 58 -6 16 -16 17 -89 12 -142 -10 -265 -58 -391 -150
-78 -58 -58 -61 -190 30 -41 28 -101 61 -133 73 -75 28 -201 52 -255 48 -40
-3 -43 -5 -43 -33 0 -30 0 -30 73 -37 155 -16 239 -49 386 -155 95 -68 238
-143 273 -143 11 0 28 11 37 25 22 34 52 31 97 -9 22 -21 53 -38 76 -41 113
-20 218 -46 224 -57 12 -20 -9 -46 -47 -58 -55 -19 -203 -6 -295 24 -80 26
-179 45 -369 71 -341 46 -654 174 -751 307 -63 88 -22 204 84 238 91 29 350
-9 421 -61 60 -45 89 18 88 196 0 172 -45 386 -80 385 -22 -1 -35 -23 -37 -63
-4 -99 -104 -232 -222 -295 -57 -30 -193 -72 -234 -72 -16 0 -16 3 2 37 10 21
19 45 19 54 0 10 17 23 45 34 66 25 149 105 185 178 16 34 44 116 61 182 43
164 67 209 145 265 36 26 101 56 125 59 3 1 33 -13 66 -29z m1762 -477 c23 -6
23 -9 18 -76 -12 -146 -66 -197 -214 -205 l-83 -5 0 55 c0 122 54 209 137 223
21 4 43 8 48 10 17 6 69 5 94 -2z m-1908 -169 c5 -49 7 -115 3 -147 -6 -54 -8
-58 -28 -52 -11 3 -69 18 -128 33 l-107 27 42 24 c55 32 140 114 174 167 15
24 29 42 31 40 1 -2 7 -43 13 -92z m775 -53 c30 -26 73 -57 94 -67 22 -10 40
-22 40 -25 0 -3 -26 -9 -58 -12 -31 -3 -88 -16 -126 -27 -37 -12 -71 -18 -74
-15 -9 9 -8 246 1 269 6 16 12 12 38 -28 17 -25 56 -68 85 -95z m-1458 49 c24
-11 61 -24 83 -30 21 -6 39 -16 39 -23 0 -25 -32 -57 -69 -68 -32 -9 -44 -8
-74 6 -51 24 -83 95 -55 123 16 16 25 15 76 -8z m2086 4 c20 -19 20 -28 0 -69
-31 -66 -114 -80 -168 -30 -39 36 -33 51 27 70 28 8 66 22 82 29 39 19 41 19
59 0z m546 -384 c22 -11 40 -27 40 -35 0 -21 -74 -95 -96 -96 -42 -3 -71 4
-106 23 -36 20 -37 22 -23 48 39 75 110 98 185 60z m-1868 -431 c161 -30 164
-32 66 -51 -110 -22 -175 -9 -197 38 -15 34 -14 47 4 41 8 -4 65 -16 127 -28z"/>
<path d="M667 939 c-37 -21 -8 -77 33 -64 13 4 20 15 20 30 0 29 -28 47 -53
34z"/>
</g>
</svg>
