<?xml version="1.0" standalone="no"?>
<!DOCTYPE svg PUBLIC "-//W3C//DTD SVG 20010904//EN"
 "http://www.w3.org/TR/2001/REC-SVG-20010904/DTD/svg10.dtd">
<svg version="1.0" xmlns="http://www.w3.org/2000/svg"
 width="400.000000pt" height="399.000000pt" viewBox="0 0 400.000000 399.000000"
 preserveAspectRatio="xMidYMid meet">

<g transform="translate(0.000000,399.000000) scale(0.100000,-0.100000)"
fill="#ffffff" stroke="none">
<path d="M1820 3979 c-614 -58 -1169 -403 -1494 -928 -124 -201 -203 -404
-259 -666 -20 -94 -21 -135 -25 -709 -2 -335 -1 -620 3 -633 10 -42 52 -53
195 -53 l130 0 0 -108 c0 -204 51 -333 185 -468 94 -95 188 -146 314 -171 67
-13 79 -19 89 -43 36 -82 152 -163 257 -180 67 -11 161 3 218 31 61 32 134
105 164 168 l28 56 3 890 c3 991 6 952 -64 1048 -42 58 -99 100 -173 128 -72
27 -191 23 -264 -9 -58 -26 -142 -103 -168 -154 -16 -32 -25 -38 -50 -38 -81
0 -223 -61 -315 -136 l-57 -47 6 115 c20 367 163 687 426 949 170 170 338 276
557 352 176 62 245 72 474 72 229 0 298 -10 474 -72 219 -76 387 -182 557
-352 263 -262 406 -582 426 -949 l6 -115 -57 47 c-92 75 -234 136 -315 136
-25 0 -34 6 -50 38 -26 50 -110 128 -168 154 -39 18 -67 22 -148 23 -90 0
-105 -3 -151 -27 -98 -51 -156 -118 -188 -214 -15 -46 -16 -132 -14 -945 l3
-894 28 -56 c30 -63 103 -136 164 -168 57 -28 151 -42 218 -31 105 17 221 98
257 180 10 24 22 30 89 43 126 25 220 76 314 171 134 135 185 264 185 468 l0
108 130 0 c143 0 185 11 195 53 4 13 5 298 3 633 -4 574 -5 615 -25 709 -56
262 -135 465 -259 666 -393 635 -1118 998 -1854 928z m460 -185 c263 -42 492
-133 725 -288 162 -108 370 -314 474 -470 122 -183 211 -380 261 -576 44 -174
50 -257 50 -793 l0 -508 -77 3 -78 3 -6 525 c-4 303 -11 546 -17 575 -56 265
-124 434 -259 640 -79 120 -297 343 -413 422 -293 199 -598 295 -940 295 -342
0 -647 -96 -940 -295 -116 -79 -334 -302 -413 -422 -135 -206 -203 -375 -259
-640 -6 -29 -13 -272 -17 -575 l-6 -525 -77 -3 -78 -3 0 508 c0 536 6 619 50
793 50 196 139 393 261 576 104 156 312 362 474 470 272 181 560 282 880 308
85 7 305 -4 405 -20z m-902 -1636 c24 -16 48 -44 61 -71 l21 -44 -2 -869 c-3
-844 -4 -870 -23 -898 -10 -16 -37 -42 -59 -57 -50 -37 -138 -41 -196 -8 -45
26 -87 88 -95 143 -3 22 -5 415 -3 871 3 750 5 833 20 860 55 101 182 135 276
73z m1425 16 c42 -21 75 -52 95 -89 15 -27 17 -110 20 -860 2 -456 0 -849 -3
-871 -14 -98 -91 -164 -191 -164 -69 0 -107 20 -150 76 l-29 37 0 882 0 881
27 41 c48 73 157 104 231 67z m-1903 -985 l0 -781 -27 7 c-150 37 -290 186
-324 343 -6 32 -9 197 -7 463 l3 414 33 69 c42 88 86 142 156 191 42 29 134
71 164 75 1 0 2 -351 2 -781z m2347 719 c74 -44 128 -107 172 -198 l36 -75 3
-414 c2 -266 -1 -431 -7 -463 -34 -157 -174 -306 -324 -343 l-27 -7 0 780 0
781 46 -14 c25 -7 70 -28 101 -47z"/>
</g>
</svg>
