<svg xmlns="http://www.w3.org/2000/svg" xmlns:xlink="http://www.w3.org/1999/xlink" width="48" zoomAndPan="magnify" viewBox="0 0 36 36.000001" height="48" preserveAspectRatio="xMidYMid meet" version="1.0"><defs><g/><clipPath id="b84b7ce6af"><path d="M 0.488281 4 L 12 4 L 12 26 L 0.488281 26 Z M 0.488281 4 " clip-rule="nonzero"/></clipPath><clipPath id="819dc4f6da"><path d="M 0.488281 13 L 35.511719 13 L 35.511719 20 L 0.488281 20 Z M 0.488281 13 " clip-rule="nonzero"/></clipPath></defs><g fill="#053370" fill-opacity="1"><g transform="translate(7.496504, 25.606616)"><g><path d="M 14.515625 -10.359375 C 14.515625 -8.296875 14.222656 -6.367188 13.640625 -4.578125 C 13.296875 -3.472656 12.828125 -2.566406 12.234375 -1.859375 C 11.648438 -1.160156 10.984375 -0.601562 10.234375 -0.1875 C 9.492188 0.21875 8.6875 0.421875 7.8125 0.421875 C 6.8125 0.421875 5.910156 0.171875 5.109375 -0.328125 C 4.304688 -0.835938 3.59375 -1.566406 2.96875 -2.515625 C 2.519531 -3.210938 2.125 -4.140625 1.78125 -5.296875 C 1.34375 -6.847656 1.125 -8.457031 1.125 -10.125 C 1.125 -12.375 1.441406 -14.441406 2.078125 -16.328125 C 2.597656 -17.890625 3.390625 -19.082031 4.453125 -19.90625 C 5.515625 -20.738281 6.632812 -21.15625 7.8125 -21.15625 C 9.007812 -21.15625 10.128906 -20.742188 11.171875 -19.921875 C 12.222656 -19.109375 12.992188 -18.007812 13.484375 -16.625 C 14.171875 -14.71875 14.515625 -12.628906 14.515625 -10.359375 Z M 9.796875 -10.390625 C 9.796875 -14.023438 9.773438 -16.140625 9.734375 -16.734375 C 9.640625 -18.148438 9.394531 -19.109375 9 -19.609375 C 8.75 -19.941406 8.335938 -20.109375 7.765625 -20.109375 C 7.328125 -20.109375 6.984375 -19.984375 6.734375 -19.734375 C 6.347656 -19.378906 6.085938 -18.75 5.953125 -17.84375 C 5.828125 -16.945312 5.765625 -13.800781 5.765625 -8.40625 C 5.765625 -5.46875 5.863281 -3.5 6.0625 -2.5 C 6.21875 -1.78125 6.4375 -1.296875 6.71875 -1.046875 C 7.007812 -0.804688 7.390625 -0.6875 7.859375 -0.6875 C 8.367188 -0.6875 8.75 -0.847656 9 -1.171875 C 9.425781 -1.742188 9.671875 -2.628906 9.734375 -3.828125 Z M 9.796875 -10.390625 "/></g></g></g><g fill="#053370" fill-opacity="1"><g transform="translate(19.952074, 25.606616)"><g><path d="M 14.515625 -10.359375 C 14.515625 -8.296875 14.222656 -6.367188 13.640625 -4.578125 C 13.296875 -3.472656 12.828125 -2.566406 12.234375 -1.859375 C 11.648438 -1.160156 10.984375 -0.601562 10.234375 -0.1875 C 9.492188 0.21875 8.6875 0.421875 7.8125 0.421875 C 6.8125 0.421875 5.910156 0.171875 5.109375 -0.328125 C 4.304688 -0.835938 3.59375 -1.566406 2.96875 -2.515625 C 2.519531 -3.210938 2.125 -4.140625 1.78125 -5.296875 C 1.34375 -6.847656 1.125 -8.457031 1.125 -10.125 C 1.125 -12.375 1.441406 -14.441406 2.078125 -16.328125 C 2.597656 -17.890625 3.390625 -19.082031 4.453125 -19.90625 C 5.515625 -20.738281 6.632812 -21.15625 7.8125 -21.15625 C 9.007812 -21.15625 10.128906 -20.742188 11.171875 -19.921875 C 12.222656 -19.109375 12.992188 -18.007812 13.484375 -16.625 C 14.171875 -14.71875 14.515625 -12.628906 14.515625 -10.359375 Z M 9.796875 -10.390625 C 9.796875 -14.023438 9.773438 -16.140625 9.734375 -16.734375 C 9.640625 -18.148438 9.394531 -19.109375 9 -19.609375 C 8.75 -19.941406 8.335938 -20.109375 7.765625 -20.109375 C 7.328125 -20.109375 6.984375 -19.984375 6.734375 -19.734375 C 6.347656 -19.378906 6.085938 -18.75 5.953125 -17.84375 C 5.828125 -16.945312 5.765625 -13.800781 5.765625 -8.40625 C 5.765625 -5.46875 5.863281 -3.5 6.0625 -2.5 C 6.21875 -1.78125 6.4375 -1.296875 6.71875 -1.046875 C 7.007812 -0.804688 7.390625 -0.6875 7.859375 -0.6875 C 8.367188 -0.6875 8.75 -0.847656 9 -1.171875 C 9.425781 -1.742188 9.671875 -2.628906 9.734375 -3.828125 Z M 9.796875 -10.390625 "/></g></g></g><g clip-path="url(#b84b7ce6af)"><g fill="#053370" fill-opacity="1"><g transform="translate(-1.613846, 25.613887)"><g><path d="M 10.21875 -21.203125 L 10.21875 -4.21875 C 10.21875 -2.9375 10.273438 -2.117188 10.390625 -1.765625 C 10.503906 -1.410156 10.738281 -1.117188 11.09375 -0.890625 C 11.445312 -0.671875 12.019531 -0.5625 12.8125 -0.5625 L 13.28125 -0.5625 L 13.28125 0 L 2.34375 0 L 2.34375 -0.5625 L 2.890625 -0.5625 C 3.785156 -0.5625 4.421875 -0.660156 4.796875 -0.859375 C 5.171875 -1.066406 5.425781 -1.347656 5.5625 -1.703125 C 5.695312 -2.066406 5.765625 -2.90625 5.765625 -4.21875 L 5.765625 -14.984375 C 5.765625 -15.941406 5.71875 -16.539062 5.625 -16.78125 C 5.53125 -17.019531 5.359375 -17.222656 5.109375 -17.390625 C 4.859375 -17.566406 4.570312 -17.65625 4.25 -17.65625 C 3.726562 -17.65625 3.09375 -17.488281 2.34375 -17.15625 L 2.0625 -17.703125 L 9.71875 -21.203125 Z M 10.21875 -21.203125 "/></g></g></g></g><g clip-path="url(#819dc4f6da)"><path fill="#053370" d="M 0.804688 13.757812 L 35.183594 13.757812 C 35.269531 13.757812 35.347656 13.789062 35.40625 13.847656 C 35.464844 13.90625 35.496094 13.984375 35.496094 14.066406 L 35.496094 19.121094 C 35.496094 19.203125 35.464844 19.28125 35.40625 19.339844 C 35.347656 19.398438 35.269531 19.433594 35.183594 19.433594 L 0.804688 19.433594 C 0.722656 19.433594 0.644531 19.398438 0.585938 19.339844 C 0.527344 19.28125 0.496094 19.203125 0.496094 19.121094 L 0.496094 14.066406 C 0.496094 13.984375 0.527344 13.90625 0.585938 13.847656 C 0.644531 13.789062 0.722656 13.757812 0.804688 13.757812 " fill-opacity="1" fill-rule="nonzero"/></g><g fill="#ffffff" fill-opacity="1"><g transform="translate(1.684274, 17.976103)"><g><path d="M 1.832031 -1.109375 L 1.097656 -1.109375 L 1.464844 -2.140625 Z M 2.914062 0 L 1.738281 -2.898438 L 1.195312 -2.898438 L 0.0195312 0 L 0.707031 0 L 0.914062 -0.582031 L 2.019531 -0.582031 L 2.226562 0 Z M 2.914062 0 "/></g></g></g><g fill="#ffffff" fill-opacity="1"><g transform="translate(5.910289, 17.976103)"><g><path d="M 2.53125 0 L 2.53125 -2.898438 L 1.890625 -2.898438 L 1.890625 -1.089844 L 0.894531 -2.898438 L 0.253906 -2.898438 L 0.253906 0 L 0.894531 0 L 0.894531 -1.804688 L 1.890625 0 Z M 2.53125 0 "/></g></g></g><g fill="#ffffff" fill-opacity="1"><g transform="translate(9.987209, 17.976103)"><g><path d="M 1.378906 -0.453125 C 1.066406 -0.453125 0.792969 -0.609375 0.777344 -0.953125 L 0.128906 -0.953125 C 0.132812 -0.246094 0.714844 0.0664062 1.355469 0.0664062 C 1.945312 0.0664062 2.554688 -0.183594 2.554688 -0.863281 C 2.554688 -1.96875 0.882812 -1.597656 0.882812 -2.113281 C 0.882812 -2.332031 1.132812 -2.414062 1.3125 -2.414062 C 1.632812 -2.414062 1.804688 -2.316406 1.839844 -2.015625 L 2.457031 -2.015625 C 2.4375 -2.675781 1.898438 -2.941406 1.304688 -2.941406 C 0.777344 -2.941406 0.222656 -2.660156 0.222656 -2.0625 C 0.222656 -0.992188 1.894531 -1.355469 1.894531 -0.792969 C 1.894531 -0.53125 1.582031 -0.453125 1.378906 -0.453125 Z M 1.378906 -0.453125 "/></g></g></g><g fill="#ffffff" fill-opacity="1"><g transform="translate(13.961894, 17.976103)"><g><path d="M 0.894531 0 L 0.894531 -2.898438 L 0.253906 -2.898438 L 0.253906 0 Z M 0.894531 0 "/></g></g></g><g fill="#ffffff" fill-opacity="1"><g transform="translate(16.403034, 17.976103)"><g><path d="M 1.933594 -0.578125 L 0.894531 -0.578125 L 0.894531 -1.164062 L 1.890625 -1.164062 L 1.890625 -1.742188 L 0.894531 -1.742188 L 0.894531 -2.316406 L 1.933594 -2.316406 L 1.933594 -2.898438 L 0.253906 -2.898438 L 0.253906 0 L 1.933594 0 Z M 1.933594 -0.578125 "/></g></g></g><g fill="#ffffff" fill-opacity="1"><g transform="translate(19.883576, 17.976103)"><g><path d="M 0.886719 -0.589844 L 0.886719 -2.304688 L 1.078125 -2.304688 C 1.570312 -2.304688 1.90625 -1.929688 1.90625 -1.449219 C 1.90625 -0.96875 1.566406 -0.589844 1.078125 -0.589844 Z M 0.253906 -2.898438 L 0.253906 0 L 1.117188 0 C 1.9375 0 2.554688 -0.628906 2.554688 -1.449219 C 2.554688 -2.265625 1.933594 -2.898438 1.117188 -2.898438 Z M 0.253906 -2.898438 "/></g></g></g><g fill="#ffffff" fill-opacity="1"><g transform="translate(23.87956, 17.976103)"><g><path d="M 1.832031 -1.109375 L 1.097656 -1.109375 L 1.464844 -2.140625 Z M 2.914062 0 L 1.738281 -2.898438 L 1.195312 -2.898438 L 0.0195312 0 L 0.707031 0 L 0.914062 -0.582031 L 2.019531 -0.582031 L 2.226562 0 Z M 2.914062 0 "/></g></g></g><g fill="#ffffff" fill-opacity="1"><g transform="translate(28.105576, 17.976103)"><g><path d="M 0.886719 -0.589844 L 0.886719 -2.304688 L 1.078125 -2.304688 C 1.570312 -2.304688 1.90625 -1.929688 1.90625 -1.449219 C 1.90625 -0.96875 1.566406 -0.589844 1.078125 -0.589844 Z M 0.253906 -2.898438 L 0.253906 0 L 1.117188 0 C 1.9375 0 2.554688 -0.628906 2.554688 -1.449219 C 2.554688 -2.265625 1.933594 -2.898438 1.117188 -2.898438 Z M 0.253906 -2.898438 "/></g></g></g><g fill="#ffffff" fill-opacity="1"><g transform="translate(32.101559, 17.976103)"><g><path d="M 1.933594 -0.578125 L 0.894531 -0.578125 L 0.894531 -1.164062 L 1.890625 -1.164062 L 1.890625 -1.742188 L 0.894531 -1.742188 L 0.894531 -2.316406 L 1.933594 -2.316406 L 1.933594 -2.898438 L 0.253906 -2.898438 L 0.253906 0 L 1.933594 0 Z M 1.933594 -0.578125 "/></g></g></g></svg>