<?xml version="1.0" encoding="UTF-8" standalone="no"?><!DOCTYPE svg PUBLIC "-//W3C//DTD SVG 1.1//EN" "http://www.w3.org/Graphics/SVG/1.1/DTD/svg11.dtd"><svg width="100%" height="100%" viewBox="0 0 305 171" version="1.1" xmlns="http://www.w3.org/2000/svg" xmlns:xlink="http://www.w3.org/1999/xlink" xml:space="preserve" xmlns:serif="http://www.serif.com/" style="fill-rule:evenodd;clip-rule:evenodd;stroke-linejoin:round;stroke-miterlimit:2;"><rect id="Prancheta1" x="0" y="0" width="304.059" height="170.566" style="fill:none;"/><g id="Prancheta11" serif:id="Prancheta1"><g><g><g><path d="M62.995,13.091l0,116.896c0,8.781 0.386,14.386 1.167,16.813c0.776,2.416 2.396,4.406 4.854,5.958c2.459,1.542 6.386,2.313 11.792,2.313l3.271,0l0,3.895l-75.25,0l0,-3.895l3.791,0c6.11,0 10.464,-0.698 13.063,-2.105c2.609,-1.416 4.364,-3.354 5.271,-5.812c0.916,-2.458 1.375,-8.177 1.375,-17.167l-0,-74.104c-0,-6.594 -0.323,-10.719 -0.959,-12.375c-0.625,-1.651 -1.802,-3.052 -3.52,-4.208c-1.724,-1.167 -3.709,-1.75 -5.959,-1.75c-3.583,0 -7.937,1.125 -13.062,3.375l-1.896,-3.792l52.583,-24.042l3.479,0Z" style="fill:#e2c5fc;fill-rule:nonzero;"/></g></g></g><g><g><g><path d="M187.048,87.508c0,14.266 -2,27.578 -6,39.938c-2.391,7.598 -5.605,13.822 -9.646,18.666c-4.042,4.849 -8.636,8.698 -13.771,11.542c-5.125,2.844 -10.708,4.271 -16.75,4.271c-6.891,0 -13.115,-1.761 -18.667,-5.271c-5.541,-3.511 -10.458,-8.542 -14.75,-15.083c-3.083,-4.777 -5.786,-11.131 -8.104,-19.063c-3.031,-10.75 -4.542,-21.854 -4.542,-33.312c-0,-15.527 2.177,-29.792 6.542,-42.792c3.583,-10.75 9.026,-18.985 16.333,-24.708c7.302,-5.735 15.032,-8.605 23.188,-8.605c8.292,-0 16.031,2.834 23.229,8.5c7.208,5.657 12.5,13.261 15.875,22.813c4.708,13.14 7.063,27.51 7.063,43.104Zm-32.459,-0.208c0,-25.011 -0.14,-39.594 -0.416,-43.75c-0.709,-9.761 -2.396,-16.365 -5.063,-19.813c-1.766,-2.25 -4.615,-3.375 -8.542,-3.375c-3.031,0 -5.416,0.849 -7.166,2.542c-2.599,2.458 -4.354,6.802 -5.271,13.021c-0.917,6.208 -1.375,27.906 -1.375,65.083c0,20.24 0.698,33.792 2.104,40.667c1.052,5 2.568,8.343 4.542,10.021c1.968,1.682 4.567,2.52 7.791,2.52c3.511,-0 6.151,-1.125 7.917,-3.375c2.943,-3.927 4.63,-10.005 5.063,-18.229l0.416,-45.312Z" style="fill:#e2c5fc;fill-rule:nonzero;"/></g></g></g><g><g><g><path d="M281.371,87.508c0,14.266 -2,27.578 -6,39.938c-2.391,7.598 -5.605,13.822 -9.646,18.666c-4.042,4.849 -8.636,8.698 -13.771,11.542c-5.125,2.844 -10.708,4.271 -16.75,4.271c-6.891,0 -13.115,-1.761 -18.667,-5.271c-5.541,-3.511 -10.458,-8.542 -14.75,-15.083c-3.083,-4.777 -5.786,-11.131 -8.104,-19.063c-3.031,-10.75 -4.542,-21.854 -4.542,-33.312c0,-15.527 2.177,-29.792 6.542,-42.792c3.583,-10.75 9.026,-18.985 16.333,-24.708c7.302,-5.735 15.032,-8.605 23.188,-8.605c8.292,-0 16.031,2.834 23.229,8.5c7.208,5.657 12.5,13.261 15.875,22.813c4.708,13.14 7.063,27.51 7.063,43.104Zm-32.459,-0.208c0,-25.011 -0.14,-39.594 -0.416,-43.75c-0.709,-9.761 -2.396,-16.365 -5.063,-19.813c-1.766,-2.25 -4.615,-3.375 -8.542,-3.375c-3.031,0 -5.416,0.849 -7.166,2.542c-2.599,2.458 -4.354,6.802 -5.271,13.021c-0.917,6.208 -1.375,27.906 -1.375,65.083c0,20.24 0.698,33.792 2.104,40.667c1.052,5 2.568,8.343 4.542,10.021c1.968,1.682 4.567,2.52 7.791,2.52c3.511,-0 6.151,-1.125 7.917,-3.375c2.943,-3.927 4.63,-10.005 5.063,-18.229l0.416,-45.312Z" style="fill:#e2c5fc;fill-rule:nonzero;"/></g></g></g><path d="M9.943,69.526l283.328,0l-0,51.948l-283.328,0l0,-51.948" style="fill:#053370;fill-rule:nonzero;"/><g><g><g><path d="M37.731,97.583l-5.567,0l2.786,-7.838l2.781,7.838Zm8.224,8.417l-8.932,-22.021l-4.115,-0l-8.937,22.021l5.213,0l1.589,-4.438l8.385,0l1.584,4.438l5.213,0Z" style="fill:#e2c5fc;fill-rule:nonzero;"/></g></g></g><g><g><g><path d="M75.162,106l0,-22.021l-4.86,-0l-0,13.729l-7.572,-13.729l-4.86,-0l-0,22.021l4.86,0l-0,-13.729l7.572,13.729l4.86,0Z" style="fill:#e2c5fc;fill-rule:nonzero;"/></g></g></g><g><g><g><path d="M97.402,102.568c-2.396,-0 -4.469,-1.198 -4.599,-3.823l-4.917,-0c0.032,5.375 4.464,7.771 9.323,7.771c4.5,-0 9.13,-1.907 9.13,-7.089c0,-8.385 -12.724,-5.568 -12.724,-9.49c0,-1.651 1.912,-2.296 3.271,-2.296c2.427,-0 3.755,0.744 4.016,3.041l4.693,-0c-0.162,-5.015 -4.24,-7.026 -8.776,-7.026c-4.016,-0 -8.224,2.141 -8.224,6.672c0,8.125 12.729,5.375 12.729,9.651c0,1.974 -2.401,2.589 -3.922,2.589Z" style="fill:#e2c5fc;fill-rule:nonzero;"/></g></g></g><g><g><g><rect x="119.063" y="83.979" width="4.859" height="22.021" style="fill:#e2c5fc;"/></g></g></g><g><g><g><path d="M150.371,101.594l-7.896,-0l-0,-4.433l7.573,0l-0,-4.406l-7.573,0l-0,-4.37l7.896,0l-0,-4.406l-12.755,0l-0,22.021l12.755,0l-0,-4.406Z" style="fill:#e2c5fc;fill-rule:nonzero;"/></g></g></g><g><g><g><path d="M168.86,101.531l0,-13.047l1.458,0c3.755,0 6.281,2.849 6.281,6.506c0,3.661 -2.557,6.541 -6.281,6.541l-1.458,0Zm-4.792,-17.552l0,22.021l6.542,-0c6.25,-0 10.942,-4.792 10.942,-11.01c0,-6.214 -4.729,-11.011 -10.942,-11.011l-6.542,0Z" style="fill:#e2c5fc;fill-rule:nonzero;"/></g></g></g><g><g><g><path d="M206.417,97.583l-5.568,0l2.787,-7.838l2.781,7.838Zm8.224,8.417l-8.932,-22.021l-4.115,-0l-8.938,22.021l5.214,0l1.589,-4.438l8.385,0l1.583,4.438l5.214,0Z" style="fill:#e2c5fc;fill-rule:nonzero;"/></g></g></g><g><g><g><path d="M231.347,101.531l-0,-13.047l1.459,0c3.755,0 6.281,2.849 6.281,6.506c-0,3.661 -2.557,6.541 -6.281,6.541l-1.459,0Zm-4.791,-17.552l-0,22.021l6.541,-0c6.25,-0 10.943,-4.792 10.943,-11.01c-0,-6.214 -4.729,-11.011 -10.943,-11.011l-6.541,0Z" style="fill:#e2c5fc;fill-rule:nonzero;"/></g></g></g><g><g><g><path d="M269.681,101.594l-7.896,-0l0,-4.433l7.573,0l0,-4.406l-7.573,0l0,-4.37l7.896,0l0,-4.406l-12.756,0l0,22.021l12.756,0l0,-4.406Z" style="fill:#e2c5fc;fill-rule:nonzero;"/></g></g></g></g></svg>