<?xml version="1.0" standalone="no"?>
<!DOCTYPE svg PUBLIC "-//W3C//DTD SVG 20010904//EN"
 "http://www.w3.org/TR/2001/REC-SVG-20010904/DTD/svg10.dtd">
<svg version="1.0" xmlns="http://www.w3.org/2000/svg"
 width="512.000000pt" height="512.000000pt" viewBox="0 0 512.000000 512.000000"
 preserveAspectRatio="xMidYMid meet">

<g transform="translate(0.000000,512.000000) scale(0.100000,-0.100000)"
fill="#ffffff" stroke="none">
<path d="M2410 4845 c-203 -56 -361 -210 -425 -415 -25 -82 -32 -330 -12 -439
19 -97 72 -211 129 -275 l39 -45 -38 -6 c-21 -3 -65 -13 -98 -22 -207 -53
-388 -238 -440 -448 -8 -33 -39 -222 -70 -420 -53 -346 -56 -361 -83 -386 -15
-15 -121 -93 -237 -174 -115 -81 -223 -159 -238 -173 -107 -100 -109 -301 -4
-410 59 -62 111 -85 202 -90 66 -4 90 -1 126 15 59 27 603 404 657 456 l42 41
0 -171 c0 -164 -1 -173 -22 -197 -17 -18 -132 -64 -433 -174 -225 -82 -435
-157 -465 -166 -108 -33 -187 -104 -238 -214 -23 -49 -27 -70 -27 -152 0 -82
4 -103 27 -152 l27 -58 -298 0 c-337 0 -374 -6 -442 -67 -136 -123 -109 -336
53 -417 l52 -26 2366 0 2366 0 52 26 c162 81 189 294 53 417 -68 61 -105 67
-442 67 l-298 0 26 57 c93 203 -24 459 -237 519 -30 9 -239 84 -465 166 -302
110 -416 156 -432 174 -22 24 -23 33 -23 196 l0 171 48 -44 c64 -60 632 -366
708 -382 233 -49 425 200 323 418 -36 76 -86 115 -318 244 -122 68 -230 134
-240 147 -13 17 -29 103 -65 366 -55 391 -62 425 -113 528 -93 186 -292 316
-521 340 -2 0 15 21 38 47 47 54 101 162 121 243 9 36 14 116 14 230 0 153 -3
184 -22 245 -58 184 -201 333 -376 395 -82 29 -266 37 -347 15z m271 -171 c75
-23 128 -56 187 -117 61 -65 89 -119 108 -206 16 -79 18 -244 3 -327 -46 -251
-300 -409 -538 -335 -113 35 -194 100 -255 203 -72 124 -76 432 -6 568 27 52
102 134 152 166 96 61 239 81 349 48z m350 -1184 c129 -24 267 -127 322 -240
35 -72 49 -142 101 -521 48 -344 54 -366 123 -430 21 -20 130 -87 242 -149
112 -62 216 -124 232 -137 53 -45 57 -127 8 -179 -27 -29 -82 -48 -113 -40
-36 9 -597 313 -623 338 -12 12 -25 29 -28 38 -3 9 -37 167 -75 351 -63 304
-72 336 -95 357 -35 29 -79 29 -110 -3 l-25 -24 0 -577 c0 -424 3 -588 12
-618 8 -26 31 -60 63 -91 48 -48 60 -54 269 -130 253 -93 255 -84 -34 -110
-96 -9 -281 -30 -410 -46 -339 -44 -333 -44 -542 -15 -104 14 -302 37 -440 51
-139 14 -273 28 -298 31 l-45 6 60 22 c33 13 132 49 220 81 147 54 164 63 210
110 32 31 55 65 63 91 9 30 12 194 12 618 l0 577 -25 24 c-31 32 -75 32 -110
3 -23 -21 -32 -53 -95 -357 -38 -184 -72 -342 -75 -351 -9 -29 -55 -64 -344
-264 -250 -173 -289 -196 -323 -196 -100 0 -157 86 -119 179 11 25 65 68 243
193 251 176 283 203 309 263 10 23 41 197 74 410 59 389 75 457 126 536 59 93
183 177 289 198 64 12 885 13 951 1z m-1321 -2325 c186 -17 498 -51 541 -60
l26 -6 -26 -51 c-32 -66 -40 -158 -17 -224 9 -26 16 -49 16 -51 0 -2 -257 -3
-570 -3 -623 0 -611 -1 -674 58 -107 101 -78 272 59 347 26 14 58 16 250 11
121 -3 299 -13 395 -21z m2378 -9 c134 -93 116 -298 -33 -367 -38 -18 -82 -19
-800 -19 -741 0 -761 1 -793 20 -92 57 -94 190 -3 244 65 38 696 115 1231 149
30 2 123 4 206 3 149 -1 151 -1 192 -30z m812 -569 c54 -27 63 -94 20 -137
-20 -20 -43 -20 -2360 -20 -2317 0 -2340 0 -2360 20 -43 43 -34 110 20 137 37
19 4643 19 4680 0z"/>
</g>
</svg>
