<?xml version="1.0" encoding="UTF-8" standalone="no"?><!DOCTYPE svg PUBLIC "-//W3C//DTD SVG 1.1//EN" "http://www.w3.org/Graphics/SVG/1.1/DTD/svg11.dtd"><svg width="100%" height="100%" viewBox="0 0 34 50" version="1.1" xmlns="http://www.w3.org/2000/svg" xmlns:xlink="http://www.w3.org/1999/xlink" xml:space="preserve" xmlns:serif="http://www.serif.com/" style="fill-rule:evenodd;clip-rule:evenodd;stroke-linejoin:round;stroke-miterlimit:2;"><g id="Page-1" serif:id="Page 1"><g id="g38"><g id="g40"><g id="g46"></g><g id="g50"></g><g id="g54"></g><g id="g58"></g><g id="g62"></g><g id="g66"></g><g id="g70"></g><g id="g74"></g><g id="g78"></g><g id="g82"></g><g id="g86"></g><g id="g90"></g><g id="g94"></g><g id="g98"></g><g id="g102"><path id="path104" d="M0.004,1.503l0,4.464c0,1.197 0.564,2.325 1.524,3.041l19.191,14.356c0.78,0.584 0.78,1.756 -0,2.339l-19.191,14.355c-0.96,0.718 -1.525,1.846 -1.525,3.044l-0,4.464c-0,1.234 1.411,1.94 2.399,1.2l30.477,-22.796c0.959,-0.718 0.959,-2.155 -0,-2.871l-30.476,-22.796c-0.989,-0.743 -2.399,-0.035 -2.399,1.2" style="fill:#00042a;fill-rule:nonzero;"/></g><g id="g106"><path id="path108" d="M2.4,17.935l6.903,5.164c0.957,0.716 0.957,2.154 -0,2.87l-6.902,5.161c-0.989,0.74 -2.398,0.035 -2.398,-1.203l-0.003,-10.789c0,-1.236 1.411,-1.943 2.4,-1.203" style="fill:#00042a;fill-rule:nonzero;"/></g><g id="g110"></g><g id="g114"></g><g id="g118"></g><g id="g122"></g><g id="g130"></g><g id="g138"></g><g id="g142"></g><g id="g146"></g><g id="g150"></g></g></g></g></svg>