<?xml version="1.0" standalone="no"?>
<!DOCTYPE svg PUBLIC "-//W3C//DTD SVG 20010904//EN"
 "http://www.w3.org/TR/2001/REC-SVG-20010904/DTD/svg10.dtd">
<svg version="1.0" xmlns="http://www.w3.org/2000/svg"
 width="512.000000pt" height="512.000000pt" viewBox="0 0 512.000000 512.000000"
 preserveAspectRatio="xMidYMid meet">

<g transform="translate(0.000000,512.000000) scale(0.100000,-0.100000)"
fill="#ffffff" stroke="none">
<path d="M3121 4503 c-8 -3 -418 -273 -910 -599 l-896 -594 -598 0 c-579 0
-599 -1 -637 -20 -26 -13 -47 -34 -60 -60 -19 -38 -20 -58 -20 -670 0 -612 1
-632 20 -670 13 -26 34 -47 60 -60 38 -19 58 -20 637 -20 l598 0 882 -585
c485 -321 896 -591 912 -600 66 -34 156 -3 191 65 20 39 20 55 20 1870 0 1815
0 1831 -20 1870 -31 60 -120 96 -179 73z m-103 -2701 l-3 -759 -750 497 -750
497 0 523 0 523 750 497 750 497 3 -759 c1 -417 1 -1099 0 -1516z m-1808 758
l0 -450 -455 0 -455 0 0 450 0 450 455 0 455 0 0 -450z"/>
<path d="M4458 3749 c-43 -22 -78 -81 -78 -129 0 -44 24 -86 95 -162 158 -171
283 -427 326 -668 20 -110 18 -375 -4 -480 -52 -249 -166 -479 -322 -648 -71
-76 -95 -118 -95 -162 0 -50 35 -107 80 -130 85 -43 145 -18 251 105 545 634
545 1536 0 2170 -106 123 -169 149 -253 104z"/>
<path d="M4069 3341 c-46 -15 -67 -30 -89 -66 -18 -29 -22 -47 -18 -91 4 -46
11 -61 47 -101 148 -168 205 -313 205 -523 0 -210 -57 -355 -205 -523 -36 -40
-43 -55 -47 -101 -7 -83 29 -133 111 -157 54 -15 106 6 166 69 114 119 206
290 252 468 32 124 33 358 2 484 -42 165 -124 324 -236 453 -67 78 -127 106
-188 88z"/>
<path d="M3610 2902 c-72 -38 -99 -145 -53 -208 81 -114 82 -167 7 -257 -33
-40 -40 -89 -19 -142 20 -54 62 -86 121 -93 58 -6 96 11 144 66 141 160 143
418 4 580 -20 23 -49 49 -65 57 -38 20 -97 19 -139 -3z"/>
</g>
</svg>
